<?xml version="1.0" encoding="UTF-8"?>
<!-- Created with Inkscape (http://www.inkscape.org/) -->
<svg width="874" height="250" version="1.1" viewBox="0 0 874 250" xml:space="preserve" xmlns="http://www.w3.org/2000/svg"><g fill="#808080"><path d="m43.7 0 36.2 18.4-57.6 0.207 54.6 79.7-70.9-58.6-0.418 64.9-5.63-6.44v37.7c14.7 6.25 27.9 1.07 38.2-27.7 22.4 40.1 52.4 41.3 64.7 29 18.4-18.4 18.9-51-31.3-81.1 18.7 1.56 33.7-12.4 35.9-30.4 0.859-7.2-2.65-16.6-11.4-25.4zm79.3 0c24.6 29.2 7.74 48.8-7.63 68.8 40.2 42.1 32.1 74.4 13.3 92.4-18.8 18-62.6 17.8-82.2-8.97-11.1 8.8-21.7 20.6-46.5 13.9v23.6c15.3 4.78 30.6 2.14 45.9-7.91 75.3 57.9 168-43.1 101-113 13.3-25.7 14.5-48.4 5.27-68.4z" fill-opacity=".3"/><path d="m874 151c-14.7 2.74-27.3 12.4-22.8 42-29.4-28.9-90.9-12.2-57.8 47.2-35.6-6.02-52.4-0.569-60.4 10.3h129l-41.5-36.9 53.5 19.3z" fill-opacity=".3"/></g></svg>
